PathFileType	4	(X/Y/Z)	16_2_61_p1_0-424_filt_butterworth.trc
DataRate	CameraRate	NumFrames	NumMarkers	Units	OrigDataRate	OrigDataStartFrame	OrigNumFrames
60.0	60.0	7	27	m	60.0	106	424
Frame#	Time	RHip			RKnee			RAnkle			RBigToe			RSmallToe			RHeel			LHip			LKnee			LAnkle			LBigToe			LSmallToe			LHeel			Neck			Head			Nose			RShoulder			RElbow			RWrist			RThumb			RIndex			RPinky			LShoulder			LElbow			LWrist			LThumb			LIndex			LPinky			
		X1	Y1	Z1	X2	Y2	Z2	X3	Y3	Z3	X4	Y4	Z4	X5	Y5	Z5	X6	Y6	Z6	X7	Y7	Z7	X8	Y8	Z8	X9	Y9	Z9	X10	Y10	Z10	X11	Y11	Z11	X12	Y12	Z12	X13	Y13	Z13	X14	Y14	Z14	X15	Y15	Z15	X16	Y16	Z16	X17	Y17	Z17	X18	Y18	Z18	X19	Y19	Z19	X20	Y20	Z20	X21	Y21	Z21	X22	Y22	Z22	X23	Y23	Z23	X24	Y24	Z24	X25	Y25	Z25	X26	Y26	Z26	X27	Y27	Z27	
106	1.7666666666666666	0.23579812854380328	0.5674049926616719	0.5503443094486251	0.28391290625931515	0.6120145561021312	0.9478248047130795	0.24635295066329121	0.7306073474202692	1.384988224655215	0.2816942812412601	0.4756548889614236	1.38248050133333	0.3307246101050504	0.5421047348230429	1.3964760201594402	0.21696626152891396	0.7794154633237526	1.4405165200422103	0.02883210513913688	0.5613011013073774	0.5576179191065803	0.035731769061242334	0.5904939627153636	0.9626142543818763	0.05030281228246975	0.666190690499544	1.373812130455704	0.05424805174445011	0.40724531171517764	1.340892919306163	0.0030709623382120035	0.4792606632627021	1.3663776357988646	0.06571193205829347	0.750544592058841	1.443818092502134	0.23082510808240558	0.23509220479766368	0.2986985826541834	0.39012046247347815	-0.07680344642063396	0.15140060835826935	0.31956840047419627	-0.0009602124765856922	0.30312943043659385	0.36381580405512703	0.31932539319211617	0.2436148504572343	0.3415057278844064	0.5717007608588859	0.42113862677547165	0.2551809678004707	0.37947387798923343	0.5102862011964499	0.21430307023798312	0.2572886111658295	0.5428862435530751	0.19345677129367608	0.27273588558649775	0.563605997547738	0.17147036481673575	0.31617405114070324	0.5795335578083285	0.06023117775402853	0.24652857437304362	0.23251219694246994	-0.05016987591901267	0.40128724766386037	0.35233477820679837	0.12102357177378721	0.3438829876108523	0.500430998342761	0.20397162160146146	0.2855595588215271	0.5291455348105583	0.2060539370630463	0.25800724289824434	0.5422748699507537	0.19276147640744168	0.3088746900002673	0.568255282336293
107	1.7833333333333334	0.23932097127033275	0.5677897466372258	0.5496091351719659	0.2858626014935408	0.6111725775446761	0.9454966363603382	0.24692123440517383	0.7337058298583378	1.3852250498844918	0.2810858110374957	0.4839033434371347	1.385228065369521	0.33051245622327835	0.5495888566994088	1.4006271243964854	0.21658422043557538	0.7798278604824547	1.4388459414227446	0.029829139270294517	0.5611656590363712	0.5557228715719958	0.03805327082825826	0.5892278934479653	0.962705491067738	0.0512389655092091	0.6663449444822698	1.3734083236971406	0.0541340032492683	0.40757594909308303	1.341035026500994	0.0029151938346105217	0.47962098850559703	1.3655590770342751	0.06709194915055675	0.7506797841827142	1.4434642070541326	0.23580224429011465	0.23163328581353493	0.2981297301794536	0.3907617347060322	-0.07630258111187989	0.15166950304490234	0.3248853511069414	-0.0012801930031616315	0.30172733658906215	0.3695431775546247	0.3154027866891033	0.2403845103924534	0.34671535431050116	0.5709893389052462	0.42174130646162106	0.2649215126058382	0.3783444179186628	0.5082278674910827	0.21454125571484903	0.25818338041813155	0.5453999300289105	0.20401397641364716	0.26896201281836535	0.5663349571535523	0.18186947249573066	0.3139400449070845	0.5800182802015393	0.06348201412753553	0.2393355176399856	0.2344630323643085	-0.0435959354583159	0.3935115475544662	0.3547214854963894	0.1269142649837372	0.3488632727165076	0.5036689728984518	0.20787458413929988	0.29006423067149045	0.5321114604224841	0.20886513769676324	0.25978028003766773	0.5441610235628425	0.19917111461110623	0.3062524161071888	0.5720055388191015
108	1.8	0.24301963784142588	0.5679442717598091	0.5483990555775509	0.2874936601480875	0.6112886245980323	0.9438302465458773	0.24734133198637506	0.7354728075404939	1.3849678301215138	0.280524429319038	0.495625535209013	1.38967423849278	0.3304132132788283	0.5546171125820496	1.4042869527073818	0.21654364598531042	0.7799403798818777	1.437312155348859	0.029722193065544238	0.5612761171248875	0.5533984189536935	0.04053028734902306	0.5882847666016887	0.9626315711883305	0.05274274792788888	0.6663285441635993	1.3741107797410024	0.0540561357760518	0.4077157425539182	1.3411207564157004	0.0026953374429923736	0.4801720041619243	1.3653909120934626	0.06899345122510467	0.7511392668864119	1.4430953578313632	0.2389481121836611	0.2300326822276122	0.29782186481548	0.38983336929023193	-0.07887188345382609	0.15114300351271706	0.3294243804561016	-0.0007796848775495498	0.29999206901808684	0.3737102923474032	0.3097092101920004	0.23819054450034263	0.35248244199946627	0.569934204605003	0.4216880250587099	0.27329171878132386	0.378266086682403	0.5075985709317284	0.2142363201587855	0.259004287760876	0.5459112175043632	0.21024433605297987	0.26519087069264846	0.5678783733544979	0.1941313777525767	0.31651825435429554	0.581684856181559	0.0662651118619099	0.23339724144927307	0.23642512056118362	-0.03443415015096184	0.39406670930685556	0.3593325292601004	0.1313593234171922	0.3491762542297052	0.5063785366810002	0.21244740277295515	0.2895300501386082	0.5328684614113792	0.21213136311674305	0.2582141230515044	0.5449498929984923	0.20528857777200138	0.3045907093696479	0.5752852599300452
109	1.8166666666666669	0.24727929944106317	0.5678842880173913	0.5475182782107143	0.288429552803653	0.6121667542714871	0.9441140458877861	0.24757560005544166	0.7363290569930538	1.384895005679461	0.2801257597241907	0.5046335477607806	1.3932196966588597	0.3304155985795269	0.5568639982181478	1.4064211873642	0.2167564586754586	0.7797466422601166	1.4358004184652315	0.02954373223534551	0.5614305762940661	0.5523331963108304	0.042388797686394364	0.5877318637629627	0.9627953762917307	0.05421970085813282	0.666284893999202	1.3753770280193756	0.05402724846915597	0.4076895607637427	1.3411362828454902	0.0025903916212830598	0.4805292140663889	1.3655263037210466	0.07023955621996704	0.7515822980470447	1.4424076487758952	0.24034218598931703	0.22926176396512304	0.2981965035500714	0.38700201760756164	-0.08320136165925376	0.1495906204929596	0.3321449406740057	-0.0002875725179169083	0.29856711873522457	0.3758451245532314	0.3019679119939581	0.23737463311727894	0.35667462962459573	0.5684287904036158	0.42148773782213933	0.27955207539198673	0.3786967022624873	0.508786025071113	0.21418050981283943	0.25775549304199236	0.5447650779477069	0.21246554095921602	0.2626446148996285	0.5678054193793193	0.20552465608229392	0.32570669354651904	0.584528371000611	0.06831305662170158	0.2317847466135722	0.23964077112971682	-0.025278103877661467	0.4012746633402042	0.3649480379503933	0.13452108036390095	0.3452546337911665	0.5074386957176524	0.217471662655296	0.2838130391082439	0.5309308645576549	0.21668922811244629	0.250160837181414	0.5431174605716761	0.21081871826725712	0.30158878528020017	0.5758644894236008
110	1.8333333333333333	0.2518275029149631	0.5675843591529388	0.5472093586788631	0.2889262930023731	0.6127437712567038	0.9457031153632935	0.24764110342225226	0.7359927683009766	1.3847272864588707	0.280161848218093	0.5060410324558217	1.3931058513464756	0.3305951849112982	0.5561792107327973	1.406117222896171	0.21708371447572986	0.7792433343346591	1.4342473002915133	0.03029245201187802	0.5614577122452886	0.5527199547481882	0.04320644642845317	0.5871814141760255	0.9627581284637836	0.05503073477396036	0.6662542402564026	1.3762308791579865	0.05400891221582527	0.4076523704555255	1.3411240647538594	0.0025471357670006647	0.4808215303205111	1.3657144196347892	0.07012338136860681	0.7517276787852961	1.4416392876280222	0.24110083139972344	0.22957986620184903	0.29892499637738734	0.38256360215185553	-0.08887154467654461	0.14684431234765916	0.33210323474714726	-0.00017549096218321598	0.29767336067183015	0.37591504990660435	0.295374275075436	0.23719659143842856	0.3586440740208853	0.5670214457495218	0.4221417460792233	0.28512358309025587	0.38079138311704636	0.511551018937948	0.21541183809181608	0.2520414522464734	0.541504751487244	0.21248563263008283	0.26137697869265336	0.5664187003100757	0.21416931069433323	0.33844871463863246	0.5872663001241952	0.06942297182975253	0.23471304062371431	0.24346148135786322	-0.018027311465637994	0.4104918323422867	0.3697122542263287	0.1361803641347022	0.33951532091641967	0.507136995137037	0.22108401971645314	0.2763925867961242	0.5278252651122662	0.22194064693606105	0.2366744754561098	0.5395654056845598	0.21483208111147498	0.2984967834915107	0.5733314318091558
111	1.85	0.256336257448642	0.5671492939187015	0.5472985924061438	0.28958786456377644	0.6113625261154624	0.9470446444298443	0.24759675295611572	0.7323179498838029	1.3831720363656657	0.28044199657229374	0.5012901685384064	1.3899445997831268	0.3307152641812082	0.5523563061538906	1.4038026286326493	0.2173813097323612	0.7784935204933554	1.433008482659828	0.03262888325664465	0.5612827495664072	0.5533206507141053	0.04306905278845098	0.5864576019115452	0.9621248697026505	0.05489654755472158	0.6662317148401793	1.376477298475547	0.053973336924180056	0.40765532445351904	1.341113327436527	0.00254645648516463	0.4809676492426259	1.3658141439495732	0.06921649675451666	0.7515419185259886	1.44122797555284	0.24162354641439637	0.23165200440403655	0.2993358013234513	0.3776670791706867	-0.09420836085854456	0.1430520583268967	0.32943551161646556	-0.0005002344352875092	0.296876589030199	0.3745720546909573	0.29296891356035476	0.23641309551404582	0.3599695067225488	0.5662478184805468	0.42245510014375875	0.29176493774976864	0.3865706687839778	0.5148476417505187	0.21907651001741152	0.2416914956105662	0.5363725260892314	0.21252220255300475	0.26116261260359697	0.5645774121467101	0.22042790839256304	0.34719960042371173	0.5887345348681969	0.06958356039254852	0.2395413927888618	0.2465506877906898	-0.01322834415614931	0.41526767696641675	0.37223646346952327	0.13655890248903432	0.3339172735914657	0.5059800147238515	0.2226362762177814	0.27112223584114925	0.5257083075197193	0.2266454111623291	0.22268218033694046	0.5363342123415614	0.2169145403060497	0.2969635495944212	0.5687326732380291
112	1.8666666666666667	0.26096486900248916	0.5673090225151985	0.5477311780620083	0.29097227701866374	0.6070525111925971	0.9473392075099337	0.24748895989795044	0.7235243380963937	1.3792594568136576	0.280271741523054	0.49585408261780745	1.3867198693899228	0.33010633978696985	0.5459692432629683	1.4007066183977641	0.2175771237198985	0.7776755729528417	1.4322996978403366	0.03622213725770297	0.5609173352692838	0.553059342593739	0.04239475050812902	0.5856169035801776	0.9611326492810728	0.05390485043880172	0.6661957550419678	1.3763516714502244	0.0539112477539005	0.407635095505246	1.3410770696052907	0.0026757458601151148	0.48053412102220566	1.36556244687885	0.0683275895996828	0.7511015172940599	1.4410824492451646	0.24112218380723086	0.23601942170762247	0.29923196472370495	0.37295817526914843	-0.09758519414516628	0.13870358760474943	0.3254840123618171	-0.0009681824022818202	0.2956649753838603	0.3728263814226651	0.29230237007685805	0.23361410227229618	0.3620661079484396	0.5664792474610831	0.4197921192994199	0.2994515877665012	0.3964526550344451	0.5171889180370021	0.22525072295210172	0.23060196093403115	0.5315152613055342	0.2141060512889896	0.2616423287664245	0.5629874175191544	0.2244302399699028	0.3482064166669441	0.5888075205737162	0.06895927834920165	0.24283477199163594	0.24771287183754076	-0.009214403986715792	0.418032741092382	0.3742244199826159	0.13689567575362785	0.32922746312255946	0.5041499287867782	0.2229907613452573	0.2671201926844413	0.5247442751179092	0.2301592666519428	0.2129340488461076	0.5343470694812738	0.21781474579179216	0.29732059192471066	0.5640242048058344
